<svg width="212" height="32" viewBox="0 0 212 32" fill="none" xmlns="http://www.w3.org/2000/svg">
<path fill-rule="evenodd" clip-rule="evenodd" d="M2 24.1042C2.70778 24.1042 3.26214 24.345 4.02025 24.7024L4.10611 24.7429C4.81946 25.0802 5.76752 25.502 6.94911 25.5107C8.22742 25.5201 9.10386 25.064 9.7717 24.7092L9.8014 24.6934C10.4745 24.336 10.8986 24.1246 11.5252 24.1332C12.1583 24.142 12.5198 24.3445 13.1255 24.6865C13.7543 25.0416 14.5683 25.4921 15.8432 25.5143V25.5172C17.1751 25.5172 18.0147 25.0526 18.6596 24.6885C19.2654 24.3465 19.6268 24.1439 20.2599 24.1352C20.8866 24.1265 21.3106 24.338 21.9838 24.6954L22.0135 24.7112C22.6813 25.0659 23.5577 25.5221 24.836 25.5127C26.0176 25.5039 26.9657 25.0821 27.679 24.7449L27.7649 24.7044C28.523 24.347 29.0774 24.1062 29.7852 24.1062V21.8217C28.5221 21.8217 27.5539 22.2782 26.8107 22.6286L26.7908 22.638C26.0108 23.0057 25.49 23.2418 24.836 23.2466C24.1669 23.2516 23.7176 23.0295 23.0551 22.6777L23.0021 22.6495C22.9389 22.6159 22.8738 22.5805 22.8068 22.5441C22.1798 22.2031 21.3799 21.7681 20.2599 21.7836C19.1122 21.7994 18.3091 22.2583 17.7197 22.5951C17.6805 22.6175 17.6423 22.6393 17.605 22.6604L17.5364 22.6992C16.9958 23.0045 16.5992 23.2125 15.942 23.2313V23.2307C15.2245 23.2307 14.8159 23.0175 14.2487 22.6973L14.1801 22.6584C14.1428 22.6373 14.1046 22.6155 14.0655 22.5931C13.476 22.2563 12.673 21.7975 11.5252 21.7817C10.4052 21.7662 9.60536 22.2012 8.97836 22.5421C8.91134 22.5786 8.8463 22.614 8.78306 22.6476L8.73005 22.6758C8.06756 23.0275 7.61826 23.2496 6.94911 23.2447C6.29517 23.2398 5.77433 23.0037 4.99436 22.636L4.97448 22.6267C4.23125 22.2762 3.26303 21.8197 2 21.8197V24.1042Z" fill="#455A79"/>
<path fill-rule="evenodd" clip-rule="evenodd" d="M15.8058 7.1271C15.8831 7.05541 16.0026 7.05541 16.0799 7.12711L29.4341 19.5127C29.5691 19.638 29.4793 19.8638 29.2951 19.8621L26.2657 19.834C26.2155 19.8336 26.1673 19.8144 26.1305 19.7802L16.08 10.4532C16.0026 10.3814 15.8831 10.3814 15.8057 10.4531L5.71879 19.8131C5.68151 19.8477 5.63253 19.8669 5.58168 19.8669H2.58025C2.39698 19.8669 2.30881 19.6421 2.4432 19.5175L15.8058 7.1271Z" fill="#DE522E"/>
<rect x="14.6309" y="13.2148" width="2.41834" height="2.41834" rx="0.20157" fill="#D15637"/>
<rect x="14.6309" y="17.4473" width="2.41834" height="2.41834" rx="0.20157" fill="#D15637"/>
<rect x="18.3926" y="17.4473" width="2.41834" height="2.41834" rx="0.20157" fill="#D15637"/>
<rect x="10.8672" y="17.4473" width="2.41834" height="2.41834" rx="0.20157" fill="#D15637"/>
<path d="M39.4372 22L43.0692 10.48H45.8932L49.5252 22H47.5412L44.2452 11.664H44.6772L41.4212 22H39.4372ZM41.4612 19.504V17.704H47.5092V19.504H41.4612ZM50.9556 22V13.36H52.8836V16.768H56.7636V13.36H58.6916V22H56.7636V18.576H52.8836V22H50.9556ZM60.2847 23.92V20.488C60.754 20.488 61.0874 20.328 61.2847 20.008C61.482 19.688 61.6394 19.1333 61.7567 18.344C61.8314 17.8747 61.8927 17.3787 61.9407 16.856C61.9887 16.3333 62.0287 15.7813 62.0607 15.2C62.098 14.6187 62.13 14.0053 62.1567 13.36H68.5887V20.488H69.4607V23.92H67.6367V22H62.1007V23.92H60.2847ZM62.8687 20.488H66.6687V14.872H63.8447C63.8287 15.192 63.81 15.52 63.7887 15.856C63.7674 16.1867 63.7434 16.5173 63.7167 16.848C63.69 17.1787 63.6607 17.496 63.6287 17.8C63.602 18.0987 63.57 18.376 63.5327 18.632C63.474 19.08 63.402 19.448 63.3167 19.736C63.2314 20.024 63.082 20.2747 62.8687 20.488ZM74.8813 22.24C74.0173 22.24 73.2626 22.0453 72.6173 21.656C71.972 21.2667 71.4706 20.7307 71.1133 20.048C70.7613 19.36 70.5853 18.5707 70.5853 17.68C70.5853 16.7733 70.7666 15.9787 71.1293 15.296C71.492 14.6133 71.996 14.08 72.6413 13.696C73.2866 13.312 74.0333 13.12 74.8813 13.12C75.7506 13.12 76.508 13.3147 77.1533 13.704C77.7986 14.0933 78.3 14.632 78.6573 15.32C79.0146 16.0027 79.1933 16.7893 79.1933 17.68C79.1933 18.576 79.012 19.368 78.6493 20.056C78.292 20.7387 77.7906 21.2747 77.1453 21.664C76.5 22.048 75.7453 22.24 74.8813 22.24ZM74.8813 20.432C75.6493 20.432 76.22 20.176 76.5933 19.664C76.9666 19.152 77.1533 18.4907 77.1533 17.68C77.1533 16.8427 76.964 16.176 76.5853 15.68C76.2066 15.1787 75.6386 14.928 74.8813 14.928C74.364 14.928 73.9373 15.0453 73.6013 15.28C73.2706 15.5093 73.0253 15.832 72.8653 16.248C72.7053 16.6587 72.6253 17.136 72.6253 17.68C72.6253 18.5173 72.8146 19.1867 73.1933 19.688C73.5773 20.184 74.14 20.432 74.8813 20.432ZM83.7467 22.24C82.9254 22.24 82.176 22.0667 81.4987 21.72C80.8214 21.3733 80.288 20.8987 79.8987 20.296L81.4187 19.28C81.728 19.648 82.072 19.9333 82.4507 20.136C82.8294 20.3333 83.2507 20.432 83.7147 20.432C84.2 20.432 84.5814 20.3253 84.8587 20.112C85.136 19.8987 85.2747 19.6133 85.2747 19.256C85.2747 18.9413 85.1814 18.72 84.9947 18.592C84.808 18.4587 84.5627 18.3787 84.2587 18.352C83.9547 18.3253 83.6294 18.312 83.2827 18.312H82.6427V16.784H83.2747C83.76 16.784 84.1654 16.728 84.4907 16.616C84.8214 16.504 84.9867 16.256 84.9867 15.872C84.9867 15.5253 84.8587 15.28 84.6027 15.136C84.3467 14.9867 84.048 14.912 83.7067 14.912C83.2907 14.912 82.88 15 82.4747 15.176C82.0694 15.352 81.7067 15.5653 81.3867 15.816L80.2987 14.504C80.7787 14.0773 81.3147 13.7413 81.9067 13.496C82.4987 13.2453 83.1307 13.12 83.8027 13.12C84.3574 13.12 84.8747 13.216 85.3547 13.408C85.84 13.6 86.2294 13.888 86.5227 14.272C86.8214 14.656 86.9707 15.1307 86.9707 15.696C86.9707 16.1013 86.8827 16.4827 86.7067 16.84C86.536 17.1973 86.2614 17.536 85.8827 17.856L85.8587 17.232C86.152 17.3547 86.4 17.5253 86.6027 17.744C86.8107 17.9627 86.968 18.2187 87.0747 18.512C87.1867 18.8053 87.2427 19.1173 87.2427 19.448C87.2427 20.0507 87.0827 20.56 86.7627 20.976C86.4427 21.392 86.016 21.7067 85.4827 21.92C84.9547 22.1333 84.376 22.24 83.7467 22.24ZM92.9308 22.24C92.0561 22.24 91.2881 22.0507 90.6268 21.672C89.9655 21.2933 89.4481 20.768 89.0748 20.096C88.7068 19.424 88.5228 18.6507 88.5228 17.776C88.5228 16.832 88.7041 16.0133 89.0668 15.32C89.4295 14.6213 89.9335 14.08 90.5788 13.696C91.2241 13.312 91.9708 13.12 92.8188 13.12C93.7148 13.12 94.4748 13.3307 95.0988 13.752C95.7281 14.168 96.1948 14.7573 96.4988 15.52C96.8028 16.2827 96.9175 17.1813 96.8428 18.216H94.9308V17.512C94.9255 16.5733 94.7601 15.888 94.4348 15.456C94.1095 15.024 93.5975 14.808 92.8988 14.808C92.1095 14.808 91.5228 15.0533 91.1388 15.544C90.7548 16.0293 90.5628 16.7413 90.5628 17.68C90.5628 18.5547 90.7548 19.232 91.1388 19.712C91.5228 20.192 92.0828 20.432 92.8188 20.432C93.2935 20.432 93.7015 20.328 94.0428 20.12C94.3895 19.9067 94.6561 19.6 94.8428 19.2L96.7468 19.776C96.4161 20.5547 95.9041 21.16 95.2108 21.592C94.5228 22.024 93.7628 22.24 92.9308 22.24ZM89.9548 18.216V16.76H95.8988V18.216H89.9548ZM102.78 22.24C101.937 22.24 101.23 22.04 100.66 21.64C100.089 21.24 99.6598 20.696 99.3718 20.008C99.0838 19.3147 98.9398 18.5387 98.9398 17.68C98.9398 16.8107 99.0838 16.032 99.3718 15.344C99.6598 14.656 100.081 14.1147 100.636 13.72C101.196 13.32 101.886 13.12 102.708 13.12C103.524 13.12 104.23 13.32 104.828 13.72C105.43 14.1147 105.897 14.656 106.228 15.344C106.558 16.0267 106.724 16.8053 106.724 17.68C106.724 18.544 106.561 19.32 106.236 20.008C105.91 20.696 105.452 21.24 104.86 21.64C104.268 22.04 103.574 22.24 102.78 22.24ZM98.6118 25.84V13.36H100.316V19.424H100.556V25.84H98.6118ZM102.484 20.512C102.985 20.512 103.398 20.3867 103.724 20.136C104.049 19.8853 104.289 19.5467 104.444 19.12C104.604 18.688 104.684 18.208 104.684 17.68C104.684 17.1573 104.604 16.6827 104.444 16.256C104.284 15.824 104.036 15.4827 103.7 15.232C103.364 14.976 102.937 14.848 102.42 14.848C101.929 14.848 101.529 14.968 101.22 15.208C100.91 15.4427 100.681 15.7733 100.532 16.2C100.388 16.6213 100.316 17.1147 100.316 17.68C100.316 18.24 100.388 18.7333 100.532 19.16C100.681 19.5867 100.913 19.92 101.228 20.16C101.548 20.3947 101.966 20.512 102.484 20.512ZM112.239 22.24C111.349 22.24 110.589 22.0427 109.959 21.648C109.33 21.248 108.847 20.704 108.511 20.016C108.181 19.328 108.013 18.5493 108.007 17.68C108.013 16.7947 108.186 16.0107 108.527 15.328C108.874 14.64 109.365 14.1013 109.999 13.712C110.634 13.3173 111.389 13.12 112.263 13.12C113.245 13.12 114.074 13.368 114.751 13.864C115.434 14.3547 115.879 15.0267 116.087 15.88L114.167 16.4C114.018 15.936 113.77 15.576 113.423 15.32C113.077 15.0587 112.682 14.928 112.239 14.928C111.738 14.928 111.325 15.048 110.999 15.288C110.674 15.5227 110.434 15.848 110.279 16.264C110.125 16.68 110.047 17.152 110.047 17.68C110.047 18.5013 110.231 19.1653 110.599 19.672C110.967 20.1787 111.514 20.432 112.239 20.432C112.751 20.432 113.154 20.3147 113.447 20.08C113.746 19.8453 113.97 19.5067 114.119 19.064L116.087 19.504C115.821 20.384 115.354 21.0613 114.687 21.536C114.021 22.0053 113.205 22.24 112.239 22.24ZM117.674 22L117.69 13.36H119.642V17.52L122.802 13.36H125.21L121.858 17.68L125.498 22H122.946L119.642 17.84V22H117.674ZM128.716 22.24C128.092 22.24 127.564 22.1227 127.132 21.888C126.7 21.648 126.372 21.3307 126.148 20.936C125.929 20.5413 125.82 20.1067 125.82 19.632C125.82 19.216 125.889 18.8427 126.028 18.512C126.166 18.176 126.38 17.888 126.668 17.648C126.956 17.4027 127.329 17.2027 127.788 17.048C128.134 16.936 128.54 16.8347 129.004 16.744C129.473 16.6533 129.98 16.5707 130.524 16.496C131.073 16.416 131.646 16.3307 132.244 16.24L131.556 16.632C131.561 16.0347 131.428 15.5947 131.156 15.312C130.884 15.0293 130.425 14.888 129.78 14.888C129.39 14.888 129.014 14.9787 128.652 15.16C128.289 15.3413 128.036 15.6533 127.892 16.096L126.132 15.544C126.345 14.8133 126.75 14.2267 127.348 13.784C127.95 13.3413 128.761 13.12 129.78 13.12C130.548 13.12 131.222 13.2453 131.804 13.496C132.39 13.7467 132.825 14.1573 133.108 14.728C133.262 15.032 133.356 15.344 133.388 15.664C133.42 15.9787 133.436 16.3227 133.436 16.696V22H131.748V20.128L132.028 20.432C131.638 21.056 131.182 21.5147 130.66 21.808C130.142 22.096 129.494 22.24 128.716 22.24ZM129.1 20.704C129.537 20.704 129.91 20.6267 130.22 20.472C130.529 20.3173 130.774 20.128 130.956 19.904C131.142 19.68 131.268 19.4693 131.332 19.272C131.433 19.0267 131.489 18.7467 131.5 18.432C131.516 18.112 131.524 17.8533 131.524 17.656L132.116 17.832C131.534 17.9227 131.036 18.0027 130.62 18.072C130.204 18.1413 129.846 18.208 129.548 18.272C129.249 18.3307 128.985 18.3973 128.756 18.472C128.532 18.552 128.342 18.6453 128.188 18.752C128.033 18.8587 127.913 18.9813 127.828 19.12C127.748 19.2587 127.708 19.4213 127.708 19.608C127.708 19.8213 127.761 20.0107 127.868 20.176C127.974 20.336 128.129 20.464 128.332 20.56C128.54 20.656 128.796 20.704 129.1 20.704ZM140.686 22V19.12H139.142C138.945 19.12 138.697 19.1147 138.398 19.104C138.105 19.0933 137.83 19.0667 137.574 19.024C136.908 18.9013 136.356 18.6107 135.918 18.152C135.481 17.688 135.262 17.0587 135.262 16.264C135.262 15.4853 135.47 14.8587 135.886 14.384C136.302 13.9093 136.844 13.6053 137.51 13.472C137.788 13.4133 138.073 13.3813 138.366 13.376C138.665 13.3653 138.913 13.36 139.11 13.36H142.614V22H140.686ZM135.038 22L137.102 18.696H139.11L137.062 22H135.038ZM138.942 17.608H140.686V14.872H138.942C138.841 14.872 138.718 14.8773 138.574 14.888C138.43 14.8987 138.286 14.9227 138.142 14.96C137.988 15.008 137.841 15.0907 137.702 15.208C137.564 15.3253 137.449 15.472 137.358 15.648C137.268 15.824 137.222 16.024 137.222 16.248C137.222 16.584 137.318 16.864 137.51 17.088C137.708 17.3067 137.937 17.4533 138.198 17.528C138.326 17.56 138.457 17.5813 138.59 17.592C138.729 17.6027 138.846 17.608 138.942 17.608ZM149.186 25.84L150.85 21.272L150.882 22.616L147.114 13.36H149.122L151.794 20.208H151.282L153.882 13.36H155.81L150.994 25.84H149.186ZM160.442 22.24C159.552 22.24 158.792 22.0427 158.162 21.648C157.533 21.248 157.05 20.704 156.714 20.016C156.384 19.328 156.216 18.5493 156.21 17.68C156.216 16.7947 156.389 16.0107 156.73 15.328C157.077 14.64 157.568 14.1013 158.202 13.712C158.837 13.3173 159.592 13.12 160.466 13.12C161.448 13.12 162.277 13.368 162.954 13.864C163.637 14.3547 164.082 15.0267 164.29 15.88L162.37 16.4C162.221 15.936 161.973 15.576 161.626 15.32C161.28 15.0587 160.885 14.928 160.442 14.928C159.941 14.928 159.528 15.048 159.202 15.288C158.877 15.5227 158.637 15.848 158.482 16.264C158.328 16.68 158.25 17.152 158.25 17.68C158.25 18.5013 158.434 19.1653 158.802 19.672C159.17 20.1787 159.717 20.432 160.442 20.432C160.954 20.432 161.357 20.3147 161.65 20.08C161.949 19.8453 162.173 19.5067 162.322 19.064L164.29 19.504C164.024 20.384 163.557 21.0613 162.89 21.536C162.224 22.0053 161.408 22.24 160.442 22.24ZM168.169 22.24C167.545 22.24 167.017 22.1227 166.585 21.888C166.153 21.648 165.825 21.3307 165.601 20.936C165.382 20.5413 165.273 20.1067 165.273 19.632C165.273 19.216 165.342 18.8427 165.481 18.512C165.619 18.176 165.833 17.888 166.121 17.648C166.409 17.4027 166.782 17.2027 167.241 17.048C167.587 16.936 167.993 16.8347 168.457 16.744C168.926 16.6533 169.433 16.5707 169.977 16.496C170.526 16.416 171.099 16.3307 171.697 16.24L171.009 16.632C171.014 16.0347 170.881 15.5947 170.609 15.312C170.337 15.0293 169.878 14.888 169.233 14.888C168.843 14.888 168.467 14.9787 168.105 15.16C167.742 15.3413 167.489 15.6533 167.345 16.096L165.585 15.544C165.798 14.8133 166.203 14.2267 166.801 13.784C167.403 13.3413 168.214 13.12 169.233 13.12C170.001 13.12 170.675 13.2453 171.257 13.496C171.843 13.7467 172.278 14.1573 172.561 14.728C172.715 15.032 172.809 15.344 172.841 15.664C172.873 15.9787 172.889 16.3227 172.889 16.696V22H171.201V20.128L171.481 20.432C171.091 21.056 170.635 21.5147 170.113 21.808C169.595 22.096 168.947 22.24 168.169 22.24ZM168.553 20.704C168.99 20.704 169.363 20.6267 169.673 20.472C169.982 20.3173 170.227 20.128 170.409 19.904C170.595 19.68 170.721 19.4693 170.785 19.272C170.886 19.0267 170.942 18.7467 170.953 18.432C170.969 18.112 170.977 17.8533 170.977 17.656L171.569 17.832C170.987 17.9227 170.489 18.0027 170.073 18.072C169.657 18.1413 169.299 18.208 169.001 18.272C168.702 18.3307 168.438 18.3973 168.209 18.472C167.985 18.552 167.795 18.6453 167.641 18.752C167.486 18.8587 167.366 18.9813 167.281 19.12C167.201 19.2587 167.161 19.4213 167.161 19.608C167.161 19.8213 167.214 20.0107 167.321 20.176C167.427 20.336 167.582 20.464 167.785 20.56C167.993 20.656 168.249 20.704 168.553 20.704ZM174.332 23.92V20.488C174.801 20.488 175.134 20.328 175.332 20.008C175.529 19.688 175.686 19.1333 175.804 18.344C175.878 17.8747 175.94 17.3787 175.988 16.856C176.036 16.3333 176.076 15.7813 176.108 15.2C176.145 14.6187 176.177 14.0053 176.204 13.36H182.636V20.488H183.508V23.92H181.684V22H176.148V23.92H174.332ZM176.916 20.488H180.716V14.872H177.892C177.876 15.192 177.857 15.52 177.836 15.856C177.814 16.1867 177.79 16.5173 177.764 16.848C177.737 17.1787 177.708 17.496 177.676 17.8C177.649 18.0987 177.617 18.376 177.58 18.632C177.521 19.08 177.449 19.448 177.364 19.736C177.278 20.024 177.129 20.2747 176.916 20.488ZM185.104 22L185.096 13.36H187.024V16.24H188.576C188.816 16.24 189.086 16.2453 189.384 16.256C189.688 16.2667 189.942 16.2907 190.144 16.328C190.63 16.4347 191.043 16.6053 191.384 16.84C191.731 17.0747 191.995 17.3813 192.176 17.76C192.358 18.1387 192.448 18.5947 192.448 19.128C192.448 19.8907 192.251 20.5013 191.856 20.96C191.467 21.4133 190.918 21.7227 190.208 21.888C189.995 21.936 189.734 21.968 189.424 21.984C189.12 21.9947 188.846 22 188.6 22H185.104ZM187.024 20.488H188.768C188.886 20.488 189.016 20.4827 189.16 20.472C189.304 20.4613 189.443 20.4373 189.576 20.4C189.816 20.336 190.027 20.192 190.208 19.968C190.395 19.7387 190.488 19.4587 190.488 19.128C190.488 18.7813 190.395 18.496 190.208 18.272C190.022 18.048 189.792 17.9013 189.52 17.832C189.398 17.8 189.27 17.7787 189.136 17.768C189.003 17.7573 188.88 17.752 188.768 17.752H187.024V20.488ZM197.798 22.256C196.977 22.2453 196.278 22.0613 195.702 21.704C195.126 21.3467 194.675 20.8427 194.35 20.192C194.025 19.5413 193.827 18.7733 193.758 17.888C193.726 17.4347 193.723 16.928 193.75 16.368C193.777 15.808 193.835 15.2613 193.926 14.728C194.017 14.1947 194.142 13.7413 194.302 13.368C194.467 12.9947 194.683 12.6507 194.95 12.336C195.217 12.016 195.505 11.7493 195.814 11.536C196.166 11.2907 196.547 11.1013 196.958 10.968C197.374 10.8347 197.809 10.7333 198.262 10.664C198.715 10.5893 199.182 10.5227 199.662 10.464C200.142 10.4053 200.617 10.3307 201.086 10.24L201.262 11.944C200.963 12.0187 200.617 12.0773 200.222 12.12C199.833 12.1573 199.427 12.2 199.006 12.248C198.59 12.296 198.193 12.3653 197.814 12.456C197.435 12.5467 197.107 12.68 196.83 12.856C196.446 13.0907 196.153 13.4267 195.95 13.864C195.747 14.3013 195.627 14.7627 195.59 15.248C195.921 14.7573 196.331 14.4133 196.822 14.216C197.318 14.0133 197.819 13.912 198.326 13.912C199.094 13.912 199.753 14.0933 200.302 14.456C200.857 14.8187 201.281 15.312 201.574 15.936C201.873 16.5547 202.022 17.2453 202.022 18.008C202.022 18.8613 201.843 19.608 201.486 20.248C201.129 20.888 200.633 21.384 199.998 21.736C199.363 22.088 198.63 22.2613 197.798 22.256ZM197.894 20.448C198.587 20.448 199.11 20.2347 199.462 19.808C199.819 19.376 199.998 18.8027 199.998 18.088C199.998 17.3573 199.814 16.7813 199.446 16.36C199.083 15.9387 198.566 15.728 197.894 15.728C197.211 15.728 196.691 15.9387 196.334 16.36C195.977 16.7813 195.798 17.3573 195.798 18.088C195.798 18.8347 195.979 19.416 196.342 19.832C196.705 20.2427 197.222 20.448 197.894 20.448ZM206.2 22.24C205.576 22.24 205.048 22.1227 204.616 21.888C204.184 21.648 203.856 21.3307 203.632 20.936C203.413 20.5413 203.304 20.1067 203.304 19.632C203.304 19.216 203.373 18.8427 203.512 18.512C203.651 18.176 203.864 17.888 204.152 17.648C204.44 17.4027 204.813 17.2027 205.272 17.048C205.619 16.936 206.024 16.8347 206.488 16.744C206.957 16.6533 207.464 16.5707 208.008 16.496C208.557 16.416 209.131 16.3307 209.728 16.24L209.04 16.632C209.045 16.0347 208.912 15.5947 208.64 15.312C208.368 15.0293 207.909 14.888 207.264 14.888C206.875 14.888 206.499 14.9787 206.136 15.16C205.773 15.3413 205.52 15.6533 205.376 16.096L203.616 15.544C203.829 14.8133 204.235 14.2267 204.832 13.784C205.435 13.3413 206.245 13.12 207.264 13.12C208.032 13.12 208.707 13.2453 209.288 13.496C209.875 13.7467 210.309 14.1573 210.592 14.728C210.747 15.032 210.84 15.344 210.872 15.664C210.904 15.9787 210.92 16.3227 210.92 16.696V22H209.232V20.128L209.512 20.432C209.123 21.056 208.667 21.5147 208.144 21.808C207.627 22.096 206.979 22.24 206.2 22.24ZM206.584 20.704C207.021 20.704 207.395 20.6267 207.704 20.472C208.013 20.3173 208.259 20.128 208.44 19.904C208.627 19.68 208.752 19.4693 208.816 19.272C208.917 19.0267 208.973 18.7467 208.984 18.432C209 18.112 209.008 17.8533 209.008 17.656L209.6 17.832C209.019 17.9227 208.52 18.0027 208.104 18.072C207.688 18.1413 207.331 18.208 207.032 18.272C206.733 18.3307 206.469 18.3973 206.24 18.472C206.016 18.552 205.827 18.6453 205.672 18.752C205.517 18.8587 205.397 18.9813 205.312 19.12C205.232 19.2587 205.192 19.4213 205.192 19.608C205.192 19.8213 205.245 20.0107 205.352 20.176C205.459 20.336 205.613 20.464 205.816 20.56C206.024 20.656 206.28 20.704 206.584 20.704Z" fill="#2A3A53"/>
</svg>
