<svg width="25" height="38" viewBox="0 0 25 38" fill="none" xmlns="http://www.w3.org/2000/svg">
<path d="M2.85 30.1L2.2098 29.3318L2.20406 29.3366L2.85 30.1ZM10.5 23.45L11.181 24.1824L11.1877 24.176L10.5 23.45ZM15.25 17.85L16.0865 18.398L15.25 17.85ZM15.95 8.15L15.1796 8.78757L15.95 8.15ZM8.4 8.4L9.17396 9.03324L9.17858 9.02759L9.18311 9.02188L8.4 8.4ZM7 12.95V13.95H7.98291L7.99985 12.9672L7 12.95ZM0.2 12.95L-0.799445 12.9167L-0.833889 13.95H0.2V12.95ZM3.75 3.85L3.07623 3.11102L3.07081 3.11604L3.75 3.85ZM21.1 3.8L20.3929 4.50713L20.3988 4.51293L21.1 3.8ZM22.05 19.2L22.9107 19.7091L22.05 19.2ZM17.25 25.4L17.9437 26.1204L17.9505 26.1137L17.25 25.4ZM10.2 31.7L9.5521 30.9383L7.48088 32.7H10.2V31.7ZM24.95 31.7H25.95V30.7H24.95V31.7ZM24.95 37.5V38.5H25.95V37.5H24.95ZM0.25 37.5H-0.75V38.5H0.25V37.5ZM0.25 32.3L-0.395942 31.5366L-0.75 31.8362V32.3H0.25ZM3.49018 30.8682C6.69687 28.196 9.26223 25.9664 11.1809 24.1823L9.81906 22.7177C7.93777 24.4669 5.40313 26.6707 2.20982 29.3318L3.49018 30.8682ZM11.1877 24.176C13.1368 22.3295 14.7721 20.4041 16.0865 18.398L14.4135 17.302C13.1945 19.1625 11.6632 20.9705 9.81225 22.724L11.1877 24.176ZM16.0865 18.398C17.4343 16.3407 18.15 14.2532 18.15 12.15H16.15C16.15 13.7801 15.599 15.4926 14.4135 17.302L16.0865 18.398ZM18.15 12.15C18.15 10.2998 17.7141 8.71313 16.7204 7.51243L15.1796 8.78757C15.7859 9.52021 16.15 10.6002 16.15 12.15H18.15ZM16.7204 7.51243C15.6726 6.24637 14.1102 5.7 12.25 5.7V7.7C13.7231 7.7 14.6274 8.12029 15.1796 8.78757L16.7204 7.51243ZM12.25 5.7C10.3304 5.7 8.7368 6.36786 7.61689 7.77812L9.18311 9.02188C9.8632 8.16547 10.8363 7.7 12.25 7.7V5.7ZM7.62604 7.76676C6.53989 9.09429 6.03597 10.855 6.00015 12.9328L7.99985 12.9672C8.03069 11.1784 8.46011 9.90571 9.17396 9.03324L7.62604 7.76676ZM7 11.95H0.2V13.95H7V11.95ZM1.19945 12.9833C1.3268 9.16274 2.44798 6.41732 4.42919 4.58396L3.07081 3.11604C0.585356 5.41601 -0.660131 8.73726 -0.799445 12.9167L1.19945 12.9833ZM4.42375 4.58895C6.48198 2.71234 9.09773 1.75 12.35 1.75V-0.250003C8.66894 -0.250003 5.55136 0.854322 3.07625 3.11104L4.42375 4.58895ZM12.35 1.75C15.9731 1.75 18.6015 2.7157 20.3929 4.50711L21.8071 3.09289C19.5318 0.817625 16.3269 -0.250003 12.35 -0.250003V1.75ZM20.3988 4.51293C22.2107 6.29515 23.15 8.67239 23.15 11.75H25.15C25.15 8.22761 24.056 5.30485 21.8012 3.08707L20.3988 4.51293ZM23.15 11.75C23.15 14.1604 22.5036 16.4691 21.1893 18.6909L22.9107 19.7091C24.3964 17.1975 25.15 14.5396 25.15 11.75H23.15ZM21.1893 18.6909C19.8296 20.9894 18.2821 22.9858 16.5495 24.6863L17.9505 26.1137C19.8179 24.2809 21.4704 22.144 22.9107 19.7091L21.1893 18.6909ZM16.5564 24.6797C14.7767 26.3934 12.4436 28.4788 9.5521 30.9383L10.8479 32.4617C13.7564 29.9878 16.1233 27.8732 17.9436 26.1203L16.5564 24.6797ZM10.2 32.7H24.95V30.7H10.2V32.7ZM23.95 31.7V37.5H25.95V31.7H23.95ZM24.95 36.5H0.25V38.5H24.95V36.5ZM1.25 37.5V32.3H-0.75V37.5H1.25ZM0.895942 33.0634L3.49594 30.8634L2.20406 29.3366L-0.395942 31.5366L0.895942 33.0634Z" fill="#02543B"/>
</svg>
