<svg width="26" height="39" viewBox="0 0 26 39" fill="none" xmlns="http://www.w3.org/2000/svg">
<path d="M0.75 11.15L-0.248752 11.1001L-0.301249 12.15H0.75V11.15ZM4.25 3.45L4.88902 4.21919L4.89018 4.21822L4.25 3.45ZM19.15 2L18.7028 2.89443L18.7097 2.89789L18.7167 2.90125L19.15 2ZM23.05 5.45L22.1891 5.95873L22.1959 5.97034L22.2031 5.98177L23.05 5.45ZM22.75 15.7L21.95 15.1L21.9478 15.103L22.75 15.7ZM18.9 18.6L18.5838 17.6513L17.9 17.8792V18.6H18.9ZM18.9 18.8H17.9V19.5367L18.6036 19.7551L18.9 18.8ZM23.4 22L22.5791 22.5711L22.5832 22.577L22.5875 22.5829L23.4 22ZM23.65 33.25L22.7909 32.7382L22.7868 32.745L22.7829 32.7519L23.65 33.25ZM19.6 36.95L20.0404 37.8478L20.0472 37.8444L19.6 36.95ZM4 35.4L3.37397 36.1798L4 35.4ZM0.25 27V26H-0.786685L-0.749351 27.036L0.25 27ZM7.05 27L8.04917 26.9592L8.01002 26H7.05V27ZM8.7 30.95L8.00458 31.6686L8.01635 31.68L8.02848 31.691L8.7 30.95ZM16.95 31L16.2306 30.3054L16.2302 30.3059L16.95 31ZM9.1 21.7H8.1V22.7H9.1V21.7ZM9.1 15.95V14.95H8.1V15.95H9.1ZM16.35 7.85L15.6575 8.57139L15.6645 8.57816L15.6717 8.5848L16.35 7.85ZM9.05 7.95L9.75711 8.65711L9.75711 8.65711L9.05 7.95ZM7.6 11.15V12.15H8.50268L8.59478 11.252L7.6 11.15ZM1.74875 11.1999C1.90426 8.08984 2.97746 5.80725 4.88902 4.21919L3.61098 2.68081C1.1892 4.69275 -0.0709234 7.54349 -0.248752 11.1001L1.74875 11.1999ZM4.89018 4.21822C6.86975 2.56859 9.50813 1.7 12.9 1.7V-0.300003C9.15854 -0.300003 6.03026 0.664743 3.60982 2.68178L4.89018 4.21822ZM12.9 1.7C15.2168 1.7 17.1392 2.11264 18.7028 2.89443L19.5972 1.10557C17.6941 0.154019 15.4499 -0.300003 12.9 -0.300003V1.7ZM18.7167 2.90125C20.2956 3.66033 21.4356 4.68367 22.1891 5.95873L23.9109 4.94127C22.931 3.28299 21.4711 2.00634 19.5833 1.09875L18.7167 2.90125ZM22.2031 5.98177C22.9948 7.24253 23.4 8.68851 23.4 10.35H25.4C25.4 8.34481 24.9053 6.52414 23.8969 4.91823L22.2031 5.98177ZM23.4 10.35C23.4 12.2665 22.9018 13.831 21.95 15.1L23.55 16.3C24.7982 14.6357 25.4 12.6335 25.4 10.35H23.4ZM21.9478 15.103C20.9868 16.3943 19.8649 17.2243 18.5838 17.6513L19.2162 19.5487C20.9351 18.9757 22.3799 17.8724 23.5522 16.297L21.9478 15.103ZM17.9 18.6V18.8H19.9V18.6H17.9ZM18.6036 19.7551C20.3432 20.2949 21.6505 21.2362 22.5791 22.5711L24.2209 21.4289C23.0161 19.6971 21.3235 18.5051 19.1964 17.8449L18.6036 19.7551ZM22.5875 22.5829C23.5361 23.9052 24.05 25.6521 24.05 27.9H26.05C26.05 25.3479 25.464 23.1615 24.2125 21.4171L22.5875 22.5829ZM24.05 27.9C24.05 29.7378 23.6232 31.3411 22.7909 32.7382L24.5091 33.7618C25.5434 32.0256 26.05 30.0622 26.05 27.9H24.05ZM22.7829 32.7519C21.9918 34.129 20.7977 35.2331 19.1528 36.0556L20.0472 37.8444C22.0023 36.8669 23.5082 35.5044 24.5171 33.7481L22.7829 32.7519ZM19.1596 36.0522C17.5619 36.836 15.5874 37.25 13.2 37.25V39.25C15.8126 39.25 18.1047 38.7974 20.0404 37.8478L19.1596 36.0522ZM13.2 37.25C9.60468 37.25 6.77574 36.346 4.62603 34.6202L3.37397 36.1798C5.9576 38.254 9.26199 39.25 13.2 39.25V37.25ZM4.62603 34.6202C2.53518 32.9416 1.37473 30.4432 1.24935 26.964L-0.749351 27.036C-0.608063 30.9568 0.731491 34.0584 3.37397 36.1798L4.62603 34.6202ZM0.25 28H7.05V26H0.25V28ZM6.05083 27.0408C6.12642 28.8928 6.76116 30.4653 8.00458 31.6686L9.39542 30.2314C8.57218 29.4347 8.10691 28.3739 8.04917 26.9592L6.05083 27.0408ZM8.02848 31.691C9.32522 32.8662 11.0387 33.4 13.05 33.4V31.4C11.3947 31.4 10.2081 30.9672 9.37152 30.209L8.02848 31.691ZM13.05 33.4C14.9332 33.4 16.5278 32.8785 17.6698 31.6941L16.2302 30.3059C15.5722 30.9882 14.5668 31.4 13.05 31.4V33.4ZM17.6694 31.6946C18.8043 30.5192 19.35 29.0263 19.35 27.3H17.35C17.35 28.5737 16.9624 29.5475 16.2306 30.3054L17.6694 31.6946ZM19.35 27.3C19.35 25.0812 18.6343 23.2828 17.0147 22.1747L15.8853 23.8253C16.7991 24.4505 17.35 25.5188 17.35 27.3H19.35ZM17.0147 22.1747C15.4989 21.1376 13.2867 20.7 10.55 20.7V22.7C13.1466 22.7 14.8678 23.1291 15.8853 23.8253L17.0147 22.1747ZM10.55 20.7H9.1V22.7H10.55V20.7ZM10.1 21.7V15.95H8.1V21.7H10.1ZM9.1 16.95H10.55V14.95H9.1V16.95ZM10.55 16.95C12.9966 16.95 15.0068 16.5465 16.4311 15.5936C17.9265 14.5932 18.65 13.0731 18.65 11.2H16.65C16.65 12.4935 16.1902 13.3485 15.319 13.9314C14.3766 14.5618 12.8367 14.95 10.55 14.95V16.95ZM18.65 11.2C18.65 9.55244 18.1433 8.14443 17.0283 7.11519L15.6717 8.5848C16.2901 9.15557 16.65 9.98089 16.65 11.2H18.65ZM17.0425 7.12861C15.9612 6.09052 14.4575 5.65 12.7 5.65V7.65C14.1425 7.65 15.0721 8.00947 15.6575 8.57139L17.0425 7.12861ZM12.7 5.65C10.9455 5.65 9.44551 6.14028 8.34289 7.24289L9.75711 8.65711C10.3878 8.02639 11.3212 7.65 12.7 7.65V5.65ZM8.34289 7.24289C7.32906 8.25673 6.7593 9.5457 6.60522 11.048L8.59478 11.252C8.70737 10.1543 9.10428 9.30994 9.75711 8.65711L8.34289 7.24289ZM7.6 10.15H0.75V12.15H7.6V10.15Z" fill="#02543B"/>
</svg>
