<svg width="149" height="36" viewBox="0 0 149 36" fill="none" xmlns="http://www.w3.org/2000/svg">
<path d="M32 0H4C1.791 0 0 1.791 0 4V31H36V4C36 1.791 34.209 0 32 0Z" fill="#FFCC4D"/>
<path d="M32.1136 18.736C33.7006 18.285 33.7006 17.589 32.1146 17.137L31.5556 16.983L30.9996 16.82V16.825L28.0596 15.934L30.3826 14H30.3686L30.8616 13.678L31.3586 13.319C32.6496 12.296 32.3666 11.633 30.7296 11.821L30.0936 11.91L29.4616 12H29.4596L26.4806 12.339L28.2506 9.15901L28.5596 8.60101C29.3616 7.16101 28.8406 6.63801 27.4016 7.43801L26.8436 7.72001L26.2876 8.00001H26.2856L23.6596 9.48901L23.9996 6.54301V6.54001L24.0796 5.90801L24.1566 5.27001C24.3446 3.63601 23.6646 3.35501 22.6406 4.64701L22.2466 5.14601L19.9896 7.99601L19.1706 5.11501L19.1686 5.11001L18.8206 3.88501C18.3696 2.29801 17.6306 2.29801 17.1786 3.88501L17.0046 4.49701L16.8306 5.11001L16.0096 7.99601L14.1486 5.64601L14.1476 5.64501L13.7526 5.14601L13.3556 4.64501C12.3326 3.35501 11.6516 3.63801 11.8406 5.27401L11.9146 5.90801L11.9876 6.54001L12.3336 9.52001L9.15656 7.75001L8.59956 7.44001C7.15856 6.63701 6.63656 7.15901 7.43856 8.60001L7.74856 9.15601L9.51856 12.333L6.53956 11.987L5.90656 11.914L5.27156 11.84C3.63556 11.651 3.35356 12.332 4.64256 13.355L5.14356 13.752L5.64256 14.147L5.64356 14.148L7.99356 16.009L5.10956 16.831L4.49756 17.005L3.88556 17.179C2.29856 17.631 2.29856 18.369 3.88556 18.821L5.11056 19.169L5.11456 19.171L7.99556 19.99L5.14456 22.248L4.64556 22.644C3.35356 23.667 3.63456 24.349 5.26856 24.161L5.90656 24.081L6.53856 24H6.54056L9.48856 23.66L7.99956 26.286V26.288L7.71956 26.844L7.42356 27.402C6.62356 28.842 7.15256 29.362 8.59256 28.56L9.15256 28.251L12.3376 26.481L11.9996 29.46V29.462L11.9196 30.094L11.8426 30.729C11.6536 32.366 12.3336 32.647 13.3566 31.356L13.7526 30.856L14.1476 30.356L16.0096 28.004L16.8296 30.889L17.0036 31.502L17.1786 32.115C17.6306 33.701 18.2836 33.701 18.7356 32.114L18.9996 30.89V30.886L19.9046 28.004L21.8096 30.356L22.2256 30.856L22.6326 31.356C23.6546 32.646 24.3426 32.366 24.1536 30.731L24.0756 30.094L23.9996 29.461V29.458L23.6596 26.511L26.2836 28H26.2856L26.8426 28.28L27.4006 28.575C28.8406 29.378 29.3636 28.847 28.5606 27.408L28.2806 26.847L27.9996 26.29V26.288L26.5106 23.66L29.4576 24H29.4606L30.0936 24.08L30.7306 24.157C32.3656 24.346 32.6456 23.665 31.3556 22.642L30.8556 22.246L30.3556 21.851L28.0036 19.904L30.8856 19H30.8896L32.1136 18.736Z" fill="#F4900C"/>
<path d="M18.0011 27.63C23.3196 27.63 27.6311 23.3185 27.6311 18C27.6311 12.6815 23.3196 8.37 18.0011 8.37C12.6826 8.37 8.37109 12.6815 8.37109 18C8.37109 23.3185 12.6826 27.63 18.0011 27.63Z" fill="#FFE8B6"/>
<path d="M35.9983 32V27.261C33.1123 23.448 27.8163 17 24.9983 17C22.3203 17 17.4043 22.823 14.4453 26.675V36H31.9983C34.2073 36 35.9983 34.209 35.9983 32Z" fill="#20785D"/>
<path d="M9 23C6.751 23 2.922 27.109 0 30.707V32C0 34.209 1.791 36 4 36H22C22 36 18.204 30.519 14.447 26.675C12.419 24.6 10.402 23 9 23Z" fill="#02543B"/>
<path d="M45.4563 24.5V11.54H53.3763V13.988H47.9043V16.796H52.2963V19.244H47.9043V24.5H45.4563ZM59.1115 24.77C58.1335 24.77 57.2755 24.551 56.5375 24.113C55.7995 23.675 55.2235 23.072 54.8095 22.304C54.4015 21.53 54.1975 20.642 54.1975 19.64C54.1975 18.626 54.4075 17.735 54.8275 16.967C55.2475 16.193 55.8265 15.59 56.5645 15.158C57.3025 14.726 58.1515 14.51 59.1115 14.51C60.0895 14.51 60.9475 14.729 61.6855 15.167C62.4295 15.605 63.0085 16.211 63.4225 16.985C63.8365 17.753 64.0435 18.638 64.0435 19.64C64.0435 20.648 63.8335 21.539 63.4135 22.313C62.9995 23.081 62.4205 23.684 61.6765 24.122C60.9385 24.554 60.0835 24.77 59.1115 24.77ZM59.1115 22.484C59.8975 22.484 60.4825 22.22 60.8665 21.692C61.2565 21.158 61.4515 20.474 61.4515 19.64C61.4515 18.776 61.2535 18.086 60.8575 17.57C60.4675 17.054 59.8855 16.796 59.1115 16.796C58.5775 16.796 58.1395 16.916 57.7975 17.156C57.4555 17.396 57.2005 17.729 57.0325 18.155C56.8705 18.581 56.7895 19.076 56.7895 19.64C56.7895 20.51 56.9845 21.203 57.3745 21.719C57.7705 22.229 58.3495 22.484 59.1115 22.484ZM66.0227 24.5V14.78H68.1827V17.156L67.9487 16.85C68.0747 16.514 68.2427 16.208 68.4527 15.932C68.6627 15.656 68.9207 15.428 69.2267 15.248C69.4607 15.104 69.7157 14.993 69.9917 14.915C70.2677 14.831 70.5527 14.78 70.8467 14.762C71.1407 14.738 71.4347 14.744 71.7287 14.78V17.066C71.4587 16.982 71.1437 16.955 70.7837 16.985C70.4297 17.009 70.1087 17.09 69.8207 17.228C69.5327 17.36 69.2897 17.537 69.0917 17.759C68.8937 17.975 68.7437 18.233 68.6417 18.533C68.5397 18.827 68.4887 19.16 68.4887 19.532V24.5H66.0227ZM77.7829 24.77C76.7869 24.77 75.9079 24.557 75.1459 24.131C74.3899 23.699 73.7959 23.108 73.3639 22.358C72.9379 21.602 72.7249 20.738 72.7249 19.766C72.7249 18.704 72.9349 17.78 73.3549 16.994C73.7749 16.208 74.3539 15.599 75.0919 15.167C75.8299 14.729 76.6789 14.51 77.6389 14.51C78.6589 14.51 79.5259 14.75 80.2399 15.23C80.9539 15.71 81.4819 16.385 81.8239 17.255C82.1659 18.125 82.2859 19.148 82.1839 20.324H79.7629V19.424C79.7629 18.434 79.6039 17.723 79.2859 17.291C78.9739 16.853 78.4609 16.634 77.7469 16.634C76.9129 16.634 76.2979 16.889 75.9019 17.399C75.5119 17.903 75.3169 18.65 75.3169 19.64C75.3169 20.546 75.5119 21.248 75.9019 21.746C76.2979 22.238 76.8769 22.484 77.6389 22.484C78.1189 22.484 78.5299 22.379 78.8719 22.169C79.2139 21.959 79.4749 21.656 79.6549 21.26L82.1029 21.962C81.7369 22.85 81.1579 23.54 80.3659 24.032C79.5799 24.524 78.7189 24.77 77.7829 24.77ZM74.5609 20.324V18.506H81.0049V20.324H74.5609ZM88.0141 24.77C86.7901 24.77 85.8001 24.494 85.0441 23.942C84.2941 23.384 83.8381 22.598 83.6761 21.584L86.1781 21.206C86.2801 21.662 86.5051 22.019 86.8531 22.277C87.2071 22.535 87.6541 22.664 88.1941 22.664C88.6381 22.664 88.9801 22.58 89.2201 22.412C89.4601 22.238 89.5801 21.998 89.5801 21.692C89.5801 21.5 89.5321 21.347 89.4361 21.233C89.3401 21.113 89.1241 20.996 88.7881 20.882C88.4581 20.768 87.9421 20.618 87.2401 20.432C86.4481 20.228 85.8151 20 85.3411 19.748C84.8671 19.496 84.5251 19.196 84.3151 18.848C84.1051 18.494 84.0001 18.068 84.0001 17.57C84.0001 16.946 84.1591 16.406 84.4771 15.95C84.7951 15.488 85.2421 15.134 85.8181 14.888C86.4001 14.636 87.0841 14.51 87.8701 14.51C88.6321 14.51 89.3071 14.627 89.8951 14.861C90.4831 15.095 90.9571 15.428 91.3171 15.86C91.6831 16.292 91.9081 16.802 91.9921 17.39L89.4901 17.84C89.4481 17.48 89.2921 17.195 89.0221 16.985C88.7521 16.775 88.3861 16.652 87.9241 16.616C87.4741 16.586 87.1111 16.646 86.8351 16.796C86.5651 16.946 86.4301 17.162 86.4301 17.444C86.4301 17.612 86.4871 17.753 86.6011 17.867C86.7211 17.981 86.9641 18.098 87.3301 18.218C87.7021 18.338 88.2661 18.494 89.0221 18.686C89.7601 18.878 90.3511 19.103 90.7951 19.361C91.2451 19.613 91.5721 19.919 91.7761 20.279C91.9801 20.633 92.0821 21.062 92.0821 21.566C92.0821 22.562 91.7221 23.345 91.0021 23.915C90.2821 24.485 89.2861 24.77 88.0141 24.77ZM99.8918 24.5C99.2198 24.626 98.5598 24.68 97.9118 24.662C97.2698 24.65 96.6938 24.539 96.1838 24.329C95.6798 24.113 95.2958 23.768 95.0318 23.294C94.7918 22.85 94.6658 22.4 94.6538 21.944C94.6418 21.482 94.6358 20.96 94.6358 20.378V12.08H97.0838V20.234C97.0838 20.612 97.0868 20.954 97.0928 21.26C97.1048 21.56 97.1678 21.8 97.2818 21.98C97.4978 22.322 97.8428 22.508 98.3168 22.538C98.7908 22.568 99.3158 22.544 99.8918 22.466V24.5ZM92.9798 16.67V14.78H99.8918V16.67H92.9798ZM105.815 24.77C104.807 24.77 103.943 24.545 103.223 24.095C102.503 23.645 101.951 23.033 101.567 22.259C101.183 21.485 100.991 20.612 100.991 19.64C100.991 18.656 101.189 17.777 101.585 17.003C101.987 16.229 102.551 15.62 103.277 15.176C104.003 14.732 104.861 14.51 105.851 14.51C106.997 14.51 107.957 14.801 108.731 15.383C109.511 15.959 110.009 16.748 110.225 17.75L107.777 18.398C107.633 17.894 107.381 17.501 107.021 17.219C106.667 16.937 106.265 16.796 105.815 16.796C105.299 16.796 104.876 16.922 104.546 17.174C104.216 17.42 103.973 17.759 103.817 18.191C103.661 18.617 103.583 19.1 103.583 19.64C103.583 20.486 103.769 21.173 104.141 21.701C104.519 22.223 105.077 22.484 105.815 22.484C106.367 22.484 106.787 22.358 107.075 22.106C107.363 21.854 107.579 21.494 107.723 21.026L110.225 21.548C109.949 22.58 109.427 23.375 108.659 23.933C107.891 24.491 106.943 24.77 105.815 24.77ZM114.549 24.77C113.853 24.77 113.262 24.638 112.776 24.374C112.296 24.104 111.93 23.747 111.678 23.303C111.432 22.853 111.309 22.358 111.309 21.818C111.309 21.368 111.378 20.957 111.516 20.585C111.654 20.213 111.876 19.886 112.182 19.604C112.494 19.316 112.911 19.076 113.433 18.884C113.793 18.752 114.222 18.635 114.72 18.533C115.218 18.431 115.782 18.335 116.412 18.245C117.042 18.149 117.735 18.044 118.491 17.93L117.609 18.416C117.609 17.84 117.471 17.417 117.195 17.147C116.919 16.877 116.457 16.742 115.809 16.742C115.449 16.742 115.074 16.829 114.684 17.003C114.294 17.177 114.021 17.486 113.865 17.93L111.651 17.228C111.897 16.424 112.359 15.77 113.037 15.266C113.715 14.762 114.639 14.51 115.809 14.51C116.667 14.51 117.429 14.642 118.095 14.906C118.761 15.17 119.265 15.626 119.607 16.274C119.799 16.634 119.913 16.994 119.949 17.354C119.985 17.714 120.003 18.116 120.003 18.56V24.5H117.861V22.502L118.167 22.916C117.693 23.57 117.18 24.044 116.628 24.338C116.082 24.626 115.389 24.77 114.549 24.77ZM115.071 22.844C115.521 22.844 115.899 22.766 116.205 22.61C116.517 22.448 116.763 22.265 116.943 22.061C117.129 21.857 117.255 21.686 117.321 21.548C117.447 21.284 117.519 20.978 117.537 20.63C117.561 20.276 117.573 19.982 117.573 19.748L118.293 19.928C117.567 20.048 116.979 20.15 116.529 20.234C116.079 20.312 115.716 20.384 115.44 20.45C115.164 20.516 114.921 20.588 114.711 20.666C114.471 20.762 114.276 20.867 114.126 20.981C113.982 21.089 113.874 21.209 113.802 21.341C113.736 21.473 113.703 21.62 113.703 21.782C113.703 22.004 113.757 22.196 113.865 22.358C113.979 22.514 114.138 22.634 114.342 22.718C114.546 22.802 114.789 22.844 115.071 22.844ZM134.043 24.5V18.758C134.043 18.116 133.89 17.618 133.584 17.264C133.284 16.904 132.867 16.724 132.333 16.724C131.991 16.724 131.694 16.805 131.442 16.967C131.19 17.123 130.992 17.345 130.848 17.633C130.71 17.915 130.641 18.242 130.641 18.614L129.615 17.93C129.615 17.264 129.771 16.676 130.083 16.166C130.401 15.656 130.824 15.26 131.352 14.978C131.886 14.69 132.477 14.546 133.125 14.546C134.235 14.546 135.072 14.876 135.636 15.536C136.206 16.19 136.491 17.048 136.491 18.11V24.5H134.043ZM122.325 24.5V14.78H124.485V18.002H124.791V24.5H122.325ZM128.193 24.5V18.758C128.193 18.116 128.04 17.618 127.734 17.264C127.434 16.904 127.017 16.724 126.483 16.724C125.973 16.724 125.562 16.901 125.25 17.255C124.944 17.603 124.791 18.056 124.791 18.614L123.765 17.894C123.765 17.258 123.924 16.688 124.242 16.184C124.56 15.68 124.986 15.281 125.52 14.987C126.06 14.693 126.663 14.546 127.329 14.546C128.091 14.546 128.715 14.708 129.201 15.032C129.693 15.356 130.056 15.788 130.29 16.328C130.524 16.868 130.641 17.462 130.641 18.11V24.5H128.193ZM143.601 24.77C142.635 24.77 141.828 24.545 141.18 24.095C140.532 23.645 140.043 23.033 139.713 22.259C139.389 21.485 139.227 20.612 139.227 19.64C139.227 18.668 139.389 17.795 139.713 17.021C140.037 16.247 140.514 15.635 141.144 15.185C141.774 14.735 142.551 14.51 143.475 14.51C144.405 14.51 145.215 14.732 145.905 15.176C146.595 15.62 147.129 16.229 147.507 17.003C147.891 17.771 148.083 18.65 148.083 19.64C148.083 20.612 147.894 21.485 147.516 22.259C147.144 23.033 146.622 23.645 145.95 24.095C145.278 24.545 144.495 24.77 143.601 24.77ZM138.813 28.82V14.78H140.973V21.44H141.279V28.82H138.813ZM143.205 22.592C143.733 22.592 144.165 22.46 144.501 22.196C144.837 21.932 145.086 21.578 145.248 21.134C145.41 20.684 145.491 20.186 145.491 19.64C145.491 19.1 145.407 18.608 145.239 18.164C145.071 17.714 144.81 17.357 144.456 17.093C144.108 16.823 143.661 16.688 143.115 16.688C142.605 16.688 142.191 16.811 141.873 17.057C141.561 17.303 141.333 17.648 141.189 18.092C141.045 18.536 140.973 19.052 140.973 19.64C140.973 20.228 141.045 20.744 141.189 21.188C141.333 21.632 141.567 21.977 141.891 22.223C142.221 22.469 142.659 22.592 143.205 22.592Z" fill="#02543B"/>
</svg>
